<svg version="1.1" id="Layer_1" xmlns:x="ns_extend;" xmlns:i="ns_ai;" xmlns:graph="ns_graphs;" xmlns="http://www.w3.org/2000/svg" xmlns:xlink="http://www.w3.org/1999/xlink" x="0px" y="0px" viewBox="0 0 82 82" style="enable-background:new 0 0 82 82;" xml:space="preserve">
 <style type="text/css">
  .st0{fill:#FEC925;}
	.st1{fill:#161616;}
	.st2{fill:#54585A;}
 </style>
 <metadata>
  <sfw xmlns="ns_sfw;">
   <slices>
   </slices>
   <sliceSourceBounds bottomLeftOrigin="true" height="82" width="82" x="259.1" y="259.1">
   </sliceSourceBounds>
  </sfw>
 </metadata>
 <g>
  <g id="Fill-1">
   <path class="st0" d="M3.2,0h75.7C80.6,0,82,1.4,82,3.2v75.7c0,1.8-1.4,3.2-3.2,3.2H3.2C1.4,82,0,80.6,0,78.8V3.2
			C0,1.4,1.4,0,3.2,0z">
   </path>
  </g>
  <path class="st1" d="M23.8,33.6v12.7h-2.9v-5.2h-5.8v5.2h-2.9V33.6h2.9v5h5.8v-5H23.8z">
  </path>
  <path class="st1" d="M35.5,43.9v2.4h-9.6v-1.9l4.9-4.6c1.1-1.1,1.3-1.7,1.3-2.3c0-1-0.7-1.6-2-1.6c-1.1,0-2,0.4-2.6,1.3l-2.1-1.4
		c1-1.4,2.8-2.4,5-2.4c2.8,0,4.7,1.4,4.7,3.7c0,1.2-0.3,2.4-2.1,4L30,43.9L35.5,43.9z">
  </path>
  <path class="st1" d="M36.7,39.9c0-3.8,2.9-6.6,6.9-6.6s6.9,2.8,6.9,6.6s-3,6.6-6.9,6.6S36.7,43.7,36.7,39.9z M47.6,39.9
		c0-2.4-1.7-4.1-4-4.1c-2.3,0-4,1.6-4,4.1s1.7,4.1,4,4.1C45.9,44,47.6,42.4,47.6,39.9z">
  </path>
  <path class="st2" d="M51.5,44.7c0-1.1,0.8-1.7,1.8-1.7c1,0,1.8,0.7,1.8,1.7c0,1-0.7,1.8-1.7,1.8C52.4,46.5,51.6,45.7,51.5,44.7
		C51.5,44.7,51.5,44.7,51.5,44.7z">
  </path>
  <path class="st2" d="M65.8,40.7v5.6h-2.6v-1.2c-0.5,0.9-1.5,1.4-3,1.4c-2.3,0-3.6-1.3-3.6-3c0-1.7,1.2-2.9,4.2-2.9h2.2
		c0-1.2-0.7-1.9-2.2-1.9c-1,0-2.1,0.3-2.8,0.9l-1-2c1.1-0.8,2.6-1.2,4.2-1.2C64,36.4,65.8,37.8,65.8,40.7z M62.9,43.2v-1H61
		c-1.3,0-1.7,0.5-1.7,1.1c0,0.7,0.6,1.2,1.6,1.2C61.8,44.5,62.6,44.1,62.9,43.2z">
  </path>
  <path class="st2" d="M68,33.6c0-0.9,0.7-1.6,1.8-1.6c1.1,0,1.8,0.7,1.8,1.5c0,0.9-0.7,1.6-1.8,1.6S68,34.5,68,33.6z M68.3,36.5h2.8
		v9.7h-2.8V36.5z">
  </path>
 </g>
</svg>